<svg width="41" height="40" viewBox="0 0 41 40" fill="none" xmlns="http://www.w3.org/2000/svg">
<path d="M8.83325 30.8333C8.83325 33.6967 15.3133 35 21.3333 35C27.3533 35 33.8333 33.6967 33.8333 30.8333C33.8333 28.56 29.8983 27.5333 27.0633 27.09L28.9999 25.1667C30.5151 23.6516 31.5469 21.7213 31.965 19.6198C32.3831 17.5184 32.1686 15.3401 31.3487 13.3605C30.5288 11.3809 29.1402 9.68893 27.3587 8.49851C25.5771 7.30809 23.4826 6.6727 21.3399 6.6727C19.1972 6.6727 17.1027 7.30809 15.3211 8.49851C13.5396 9.68893 12.1511 11.3809 11.3311 13.3605C10.5112 15.3401 10.2967 17.5184 10.7148 19.6198C11.1329 21.7213 12.1648 23.6516 13.6799 25.1667L15.6099 27.0967C12.7683 27.5333 8.83325 28.56 8.83325 30.8333ZM22.9999 13.3333C22.9999 13.1786 23.043 13.0269 23.1244 12.8952C23.2057 12.7636 23.3222 12.6572 23.4606 12.588C23.599 12.5188 23.754 12.4895 23.9081 12.5034C24.0622 12.5173 24.2094 12.5738 24.3333 12.6667C25.3652 13.4409 26.2221 14.4242 26.8479 15.5524C27.4737 16.6805 27.8543 17.928 27.9649 19.2133C28.0015 19.6082 27.8951 20.0031 27.6651 20.3261C27.4351 20.6491 27.0967 20.8788 26.7116 20.9733L24.6666 21.485V23.3333C24.6666 23.5544 24.5788 23.7663 24.4225 23.9226C24.2662 24.0789 24.0543 24.1667 23.8333 24.1667C23.6122 24.1667 23.4003 24.0789 23.244 23.9226C23.0877 23.7663 22.9999 23.5544 22.9999 23.3333V13.3333ZM15.4999 15V13.3333C15.4999 13.1123 15.5877 12.9004 15.744 12.7441C15.9003 12.5878 16.1122 12.5 16.3333 12.5C16.5543 12.5 16.7662 12.5878 16.9225 12.7441C17.0788 12.9004 17.1666 13.1123 17.1666 13.3333V15C17.1699 15.2874 17.2486 15.5689 17.3949 15.8164C17.5411 16.0638 17.7497 16.2685 17.9999 16.41V13.3333C17.9999 13.1123 18.0877 12.9004 18.244 12.7441C18.4003 12.5878 18.6122 12.5 18.8333 12.5C19.0543 12.5 19.2662 12.5878 19.4225 12.7441C19.5788 12.9004 19.6666 13.1123 19.6666 13.3333V16.41C19.9168 16.2685 20.1254 16.0638 20.2716 15.8164C20.4179 15.5689 20.4966 15.2874 20.4999 15V13.3333C20.4999 13.1123 20.5877 12.9004 20.744 12.7441C20.9003 12.5878 21.1122 12.5 21.3333 12.5C21.5543 12.5 21.7662 12.5878 21.9225 12.7441C22.0788 12.9004 22.1666 13.1123 22.1666 13.3333V15C22.1638 15.7369 21.917 16.452 21.4647 17.0337C21.0124 17.6154 20.38 18.0308 19.6666 18.215V23.3333C19.6666 23.5544 19.5788 23.7663 19.4225 23.9226C19.2662 24.0789 19.0543 24.1667 18.8333 24.1667C18.6122 24.1667 18.4003 24.0789 18.244 23.9226C18.0877 23.7663 17.9999 23.5544 17.9999 23.3333V18.215C17.2865 18.0308 16.6542 17.6154 16.2018 17.0337C15.7495 16.452 15.5027 15.7369 15.4999 15ZM17.0899 28.5767L19.5649 31.0533C19.7971 31.2857 20.0728 31.47 20.3762 31.5957C20.6796 31.7214 21.0048 31.7861 21.3333 31.7861C21.6617 31.7861 21.9869 31.7214 22.2903 31.5957C22.5937 31.47 22.8694 31.2857 23.1016 31.0533L25.5766 28.5767C30.1566 29.1067 32.1666 30.3133 32.1666 30.8333C32.1666 31.58 28.4816 33.3333 21.3333 33.3333C14.1849 33.3333 10.4999 31.58 10.4999 30.8333C10.4999 30.3133 12.5099 29.1067 17.0899 28.5767Z" fill="white"/>
</svg>
